<?xml version="1.0" encoding="UTF-8"?>
<svg xmlns="http://www.w3.org/2000/svg" version="1.1" viewBox="0 0 1200 300">
  <defs>
    <style>
      .cls-1 {
        fill: #a3a5a8;
      }

      .cls-2 {
        fill: #c3c5c8;
      }

      .cls-3 {
        fill: #fff;
      }

      .cls-4 {
        fill: #5f01d1;
      }

      .cls-5 {
        display: none;
      }

      .cls-6 {
        fill: #dcfd00;
      }
    </style>
  </defs>
  <!-- Generator: Adobe Illustrator 28.7.1, SVG Export Plug-In . SVG Version: 1.2.0 Build 142)  -->
  <g>
    <g id="Background_-_Purple" class="cls-5">
      <rect class="cls-4" y="-18" width="1200" height="336"/>
    </g>
    <g id="Logo_-_Purple">
      <g>
        <g>
          <path class="cls-4" d="M884.9,129.9c-19.1-19.1-42.3-28.7-69.2-28.7s-49.9,9.6-69.1,28.6c-19.1,19.1-28.8,42.4-28.8,69.2s9.7,50.1,28.8,69.2c19.1,19.1,42.3,28.7,69.1,28.7s32.6-4.1,47.1-12.2c7.6-4.3,11.5-10.9,11.5-19.5s-.9-7.1-2.6-10.6v-.2c-4.6-7.7-11.1-11.6-19.6-11.6s-7.2,1-10.7,2.8c-7.9,4.3-16.6,6.5-25.7,6.5-14.8,0-27.1-5.1-37.6-15.6-4.7-4.7-8.4-9.8-11-15.3h124.3c6.1,0,11.4-2.1,15.7-6.5,4.3-4.4,6.5-9.7,6.5-15.8,0-26.8-9.7-50.1-28.7-69.2ZM767.1,176.7c2.6-5.5,6.2-10.6,10.9-15.3,10.5-10.5,22.9-15.7,37.6-15.7s27.1,5.1,37.6,15.7c4.5,4.5,8,9.6,10.7,15.3h-96.9Z"/>
          <path class="cls-4" d="M689.2,2.5c-13.1,0-23.8,10.7-23.8,23.8v89c-15-9.1-32.4-14.1-50.3-14.1-53.8,0-97.5,44-97.5,98.2s43.7,97.5,97.5,97.5,97.9-43.7,97.9-97.5V26.3c0-13.1-10.7-23.8-23.8-23.8ZM615.2,249.7c-27.7,0-50.3-22.6-50.3-50.3s22.6-51,50.3-51,50.3,22.9,50.3,51-22.6,50.3-50.3,50.3Z"/>
          <path class="cls-4" d="M415.7,101.2c-53.9,0-97.8,43.9-97.8,97.8s43.9,97.8,97.8,97.8,97.8-43.9,97.8-97.8-43.9-97.8-97.8-97.8ZM415.7,148.4c27.9,0,50.6,22.7,50.6,50.6s-22.7,50.6-50.6,50.6-50.6-22.7-50.6-50.6,22.7-50.6,50.6-50.6Z"/>
          <rect class="cls-4" x="114.7" y="2.8" width="47.6" height="184.3" rx="23.8" ry="23.8"/>
          <g>
            <path class="cls-6" d="M155.8,298c8.7,0,15.2-7.1,15.5-15.5.4-8.4-7.4-15.5-15.5-15.5s-11.2,0-16.9,0c-24.4,0-48.8,0-73.2,0-15.3,0-30.7,0-46.1,0-8.7,0-15.2,7.1-15.5,15.5s7.4,15.5,15.5,15.5,11.2,0,16.9,0c24.4,0,48.8,0,73.2,0,15.3,0,30.7,0,46.1,0h0Z"/>
            <path class="cls-4" d="M302.3,255.1l-75.7-55.6,75.6-55.5c10.5-7.7,12.8-22.7,5.1-33.2h0c-7.7-10.5-22.7-12.8-33.2-5.1l-101,74.2c-1.1.8-2,1.6-2.9,2.6-1,.9-1.9,2-2.8,3.1h0c-7.7,10.5-5.4,25.5,5.1,33.2l101.7,74.7c10.5,7.7,25.5,5.4,33.2-5.1h0c7.7-10.5,5.4-25.5-5.1-33.2Z"/>
          </g>
          <path class="cls-4" d="M1062.3,101.3h0s-6.7,0-6.7,0h-61.5c-10.3,0-20.2,2-29.4,5.8-9.2,3.9-17.3,9.3-24.2,16.2-6.9,6.9-12.3,15-16.2,24.2-3.7,8.8-5.7,18.2-5.8,28.1v1.7s0,31.4,0,31.4v65.3c0,13.2,10.8,24,24,24h.2c13.2,0,24-10.8,24-24v-91.2c0-.1,0-.2,0-.3v-.6c0-.3,0-.6,0-.8.5-10.8,6.2-20.5,15.3-26.2,4.5-2.9,9.6-4.6,15.2-5h.2s5.3,0,5.3,0c.3,0,.6,0,1,0h57.8c13.4,0,24.4-11,24.4-24.4h0c0-13.1-10.5-23.9-23.5-24.4Z"/>
        </g>
        <g>
          <path class="cls-1" d="M1108.4,148.7c-1.1-1.1-1.6-2.4-1.6-3.9v-46c0-4.2.6-8.1,1.9-11.8,1.3-3.7,3.2-6.9,5.6-9.7,2.6-2.9,5.6-5.1,9.2-6.7,3.6-1.6,7.6-2.4,12.1-2.4s8.8.8,12.5,2.4c3.7,1.6,6.9,3.8,9.6,6.8,2.6,2.9,4.5,6.3,5.9,10.1,1.4,3.9,2,8,2,12.5v44.8c0,1.5-.6,2.8-1.7,4-1.1,1-2.4,1.5-4,1.5s-3-.5-4.1-1.6c-1.1-1.1-1.6-2.4-1.6-3.9v-18.4h-36.4v18.4c0,1.6-.5,2.9-1.6,3.9-1.1,1.1-2.4,1.6-4.1,1.6s-2.9-.5-4-1.6ZM1154.5,115.1v-15c0-3-.4-5.8-1.3-8.3-.9-2.5-2.1-4.8-3.8-6.6-1.6-1.9-3.6-3.3-5.9-4.3-2.3-1-4.8-1.5-7.5-1.5-5.4,0-9.7,1.8-13,5.4-1.6,1.8-2.8,3.9-3.6,6.4-.8,2.5-1.2,5.3-1.2,8.4v15.5h36.4Z"/>
          <circle class="cls-1" cx="1187.3" cy="59.1" r="8.7"/>
          <path class="cls-1" d="M1187.3,74.8c-1.9,0-3.8-.4-5.5-1.1,0,0,0,0,0,0v71.3c0,1.5.5,2.8,1.6,3.8,1.1,1.1,2.4,1.6,3.8,1.6s2.8-.5,3.9-1.5c1.1-1,1.6-2.3,1.6-3.8v-71.3s0,0,0,0c-1.7.7-3.5,1.1-5.5,1.1Z"/>
        </g>
      </g>
    </g>
    <g id="Logo_-_White" class="cls-5">
      <g>
        <g>
          <path class="cls-3" d="M884.9,129.9c-19.1-19.1-42.3-28.7-69.2-28.7s-49.9,9.6-69.1,28.6c-19.1,19.1-28.8,42.4-28.8,69.2s9.7,50.1,28.8,69.2c19.1,19.1,42.3,28.7,69.1,28.7s32.6-4.1,47.1-12.2c7.6-4.3,11.5-10.9,11.5-19.5s-.9-7.1-2.6-10.6v-.2c-4.6-7.7-11.1-11.6-19.6-11.6s-7.2,1-10.7,2.8c-7.9,4.3-16.6,6.5-25.7,6.5-14.8,0-27.1-5.1-37.6-15.6-4.7-4.7-8.4-9.8-11-15.3h124.3c6.1,0,11.4-2.1,15.7-6.5,4.3-4.4,6.5-9.7,6.5-15.8,0-26.8-9.7-50.1-28.7-69.2ZM767.1,176.7c2.6-5.5,6.2-10.6,10.9-15.3,10.5-10.5,22.9-15.7,37.6-15.7s27.1,5.1,37.6,15.7c4.5,4.5,8,9.6,10.7,15.3h-96.9Z"/>
          <path class="cls-3" d="M689.2,2.5c-13.1,0-23.8,10.7-23.8,23.8v89c-15-9.1-32.4-14.1-50.3-14.1-53.8,0-97.5,44-97.5,98.2s43.7,97.5,97.5,97.5,97.9-43.7,97.9-97.5V26.3c0-13.1-10.7-23.8-23.8-23.8ZM615.2,249.7c-27.7,0-50.3-22.6-50.3-50.3s22.6-51,50.3-51,50.3,22.9,50.3,51-22.6,50.3-50.3,50.3Z"/>
          <path class="cls-3" d="M415.7,101.2c-53.9,0-97.8,43.9-97.8,97.8s43.9,97.8,97.8,97.8,97.8-43.9,97.8-97.8-43.9-97.8-97.8-97.8ZM415.7,148.4c27.9,0,50.6,22.7,50.6,50.6s-22.7,50.6-50.6,50.6-50.6-22.7-50.6-50.6,22.7-50.6,50.6-50.6Z"/>
          <rect class="cls-3" x="114.7" y="2.8" width="47.6" height="184.3" rx="23.8" ry="23.8"/>
          <g>
            <path class="cls-6" d="M155.8,298c8.7,0,15.2-7.1,15.5-15.5.4-8.4-7.4-15.5-15.5-15.5-5.6,0-11.2,0-16.9,0-24.4,0-48.8,0-73.2,0-15.3,0-30.7,0-46.1,0s-15.2,7.1-15.5,15.5,7.4,15.5,15.5,15.5c5.6,0,11.2,0,16.9,0,24.4,0,48.8,0,73.2,0,15.3,0,30.7,0,46.1,0h0Z"/>
            <path class="cls-3" d="M302.3,255.1l-75.7-55.6,75.6-55.5c10.5-7.7,12.8-22.7,5.1-33.2h0c-7.7-10.5-22.7-12.8-33.2-5.1l-101,74.2c-1.1.8-2,1.6-2.9,2.6-1,.9-1.9,2-2.8,3.1h0c-7.7,10.5-5.4,25.5,5.1,33.2l101.7,74.7c10.5,7.7,25.5,5.4,33.2-5.1h0c7.7-10.5,5.4-25.5-5.1-33.2Z"/>
          </g>
          <path class="cls-3" d="M1062.3,101.3h0s-6.7,0-6.7,0h-61.5c-10.3,0-20.2,2-29.4,5.8-9.2,3.9-17.3,9.3-24.2,16.2-6.9,6.9-12.3,15-16.2,24.2-3.7,8.8-5.7,18.2-5.8,28.1v1.7s0,31.4,0,31.4v65.3c0,13.2,10.8,24,24,24h.2c13.2,0,24-10.8,24-24v-91.2c0-.1,0-.2,0-.3v-.6c0-.3,0-.6,0-.8.5-10.8,6.2-20.5,15.3-26.2,4.5-2.9,9.6-4.6,15.2-5h.2s5.3,0,5.3,0c.3,0,.6,0,1,0h57.8c13.4,0,24.4-11,24.4-24.4h0c0-13.1-10.5-23.9-23.5-24.4Z"/>
        </g>
        <g>
          <path class="cls-2" d="M1108.4,148.7c-1.1-1.1-1.6-2.4-1.6-3.9v-46c0-4.2.6-8.1,1.9-11.8,1.3-3.7,3.2-6.9,5.6-9.7,2.6-2.9,5.6-5.1,9.2-6.7,3.6-1.6,7.6-2.4,12.1-2.4s8.8.8,12.5,2.4c3.7,1.6,6.9,3.8,9.6,6.8,2.6,2.9,4.5,6.3,5.9,10.1,1.4,3.9,2,8,2,12.5v44.8c0,1.5-.6,2.8-1.7,4-1.1,1-2.4,1.5-4,1.5s-3-.5-4.1-1.6c-1.1-1.1-1.6-2.4-1.6-3.9v-18.4h-36.4v18.4c0,1.6-.5,2.9-1.6,3.9-1.1,1.1-2.4,1.6-4.1,1.6s-2.9-.5-4-1.6ZM1154.5,115.1v-15c0-3-.4-5.8-1.3-8.3-.9-2.5-2.1-4.8-3.8-6.6-1.6-1.9-3.6-3.3-5.9-4.3-2.3-1-4.8-1.5-7.5-1.5-5.4,0-9.7,1.8-13,5.4-1.6,1.8-2.8,3.9-3.6,6.4-.8,2.5-1.2,5.3-1.2,8.4v15.5h36.4Z"/>
          <circle class="cls-2" cx="1187.3" cy="59.1" r="8.7"/>
          <path class="cls-2" d="M1187.3,74.8c-1.9,0-3.8-.4-5.5-1.1,0,0,0,0,0,0v71.3c0,1.5.5,2.8,1.6,3.8,1.1,1.1,2.4,1.6,3.8,1.6s2.8-.5,3.9-1.5c1.1-1,1.6-2.3,1.6-3.8v-71.3s0,0,0,0c-1.7.7-3.5,1.1-5.5,1.1Z"/>
        </g>
      </g>
    </g>
  </g>
</svg>